<?xml version="1.0" standalone="no"?>
<!DOCTYPE svg PUBLIC "-//W3C//DTD SVG 20010904//EN"
 "http://www.w3.org/TR/2001/REC-SVG-20010904/DTD/svg10.dtd">
<svg version="1.0" xmlns="http://www.w3.org/2000/svg"
 width="405.000000pt" height="405.000000pt" viewBox="0 0 405.000000 405.000000"
 preserveAspectRatio="xMidYMid meet">

<g transform="translate(0.000000,405.000000) scale(0.100000,-0.100000)"
fill="#000000" stroke="none">
<path d="M692 2553 c-22 -9 -44 -63 -37 -94 8 -37 40 -59 86 -59 71 0 105 85
54 135 -23 24 -69 32 -103 18z"/>
<path d="M1035 2528 c-94 -33 -155 -112 -155 -200 0 -92 46 -156 148 -203 129
-60 141 -68 153 -98 10 -24 10 -34 -2 -56 -31 -54 -107 -65 -210 -31 -34 12
-64 19 -66 16 -9 -9 -32 -119 -27 -128 11 -18 123 -41 200 -40 175 0 286 102
271 247 -9 91 -72 157 -195 204 -96 38 -121 64 -108 117 13 50 91 67 182 39
27 -8 52 -15 55 -15 4 0 12 21 18 48 7 26 14 55 17 64 11 37 -200 64 -281 36z"/>
<path d="M1625 2322 c-22 -10 -46 -26 -54 -35 -19 -24 -28 -21 -34 13 -6 30
-7 30 -72 30 l-65 0 0 -350 0 -350 80 0 80 0 0 100 c0 55 2 100 4 100 3 0 22
-10 43 -22 48 -29 138 -30 180 -3 81 51 118 110 132 207 17 123 -24 245 -100
295 -54 35 -137 42 -194 15z m97 -141 c30 -26 33 -35 36 -100 5 -80 -8 -121
-46 -151 -43 -35 -105 -21 -135 30 -21 35 -23 163 -3 199 31 56 99 66 148 22z"/>
<path d="M2042 2323 c-30 -9 -56 -22 -59 -28 -7 -20 16 -95 30 -95 7 0 30 7
52 15 65 23 122 19 151 -10 14 -14 24 -31 21 -38 -2 -7 -27 -15 -57 -19 -160
-19 -240 -86 -240 -200 1 -133 139 -205 264 -135 27 15 50 27 52 27 1 0 4 -10
6 -22 3 -21 8 -23 71 -23 l68 -1 -4 198 c-4 178 -7 202 -27 243 -35 73 -82 98
-188 102 -59 2 -104 -3 -140 -14z m198 -323 c0 -41 -5 -56 -25 -75 -47 -48
-115 -25 -115 39 0 48 47 82 118 85 20 1 22 -4 22 -49z"/>
<path d="M2627 2326 c-103 -38 -161 -108 -179 -218 -22 -128 26 -235 131 -292
46 -25 63 -28 135 -27 45 0 95 5 110 11 27 10 28 12 21 63 -4 28 -9 55 -11 58
-2 3 -25 2 -52 -3 -42 -9 -56 -7 -95 10 -56 25 -81 67 -81 137 0 103 53 150
160 143 l63 -4 12 54 c8 39 8 57 0 65 -17 17 -170 19 -214 3z"/>
<path d="M2989 2312 c-37 -19 -64 -43 -86 -76 -41 -60 -53 -104 -53 -186 1
-117 44 -191 136 -236 48 -23 67 -27 142 -26 48 0 105 7 127 14 39 13 40 15
38 57 -3 67 -7 71 -45 60 -50 -14 -155 -11 -188 6 -31 16 -60 51 -60 72 0 10
38 13 165 13 l165 0 0 63 c0 168 -85 267 -229 267 -45 0 -71 -7 -112 -28z
m160 -99 c12 -10 25 -32 30 -50 11 -40 4 -43 -95 -43 -55 0 -76 4 -80 14 -7
18 21 72 43 85 28 16 79 13 102 -6z"/>
<path d="M660 2061 l0 -270 73 2 72 2 3 268 2 267 -75 0 -75 0 0 -269z"/>
</g>
</svg>
